<svg width="116" height="193" viewBox="0 0 116 193" fill="none" xmlns="http://www.w3.org/2000/svg">
<g filter="url(#filter0_bdi_2_28)">
<path d="M4 54C4 24.1766 28.1766 0 58 0V0C87.8234 0 112 24.1766 112 54V131C112 160.823 87.8234 185 58 185V185C28.1766 185 4 160.823 4 131V54Z" fill="white" fill-opacity="0.26" shape-rendering="crispEdges"/>
<path d="M58.1136 47L58.1136 138.518M58.1136 138.518L81.2268 110.618M58.1136 138.518L34.9999 110.618" stroke="black" stroke-width="7.27841" stroke-linecap="round" stroke-linejoin="round"/>
<path d="M108 54V131C108 158.614 85.6142 181 58 181C30.3858 181 8 158.614 8 131V54C8 26.3858 30.3858 4 58 4C85.6142 4 108 26.3858 108 54Z" stroke="black" stroke-width="8" shape-rendering="crispEdges"/>
</g>
<defs>
<filter id="filter0_bdi_2_28" x="-7" y="-4" width="123" height="197" filterUnits="userSpaceOnUse" color-interpolation-filters="sRGB">
<feFlood flood-opacity="0" result="BackgroundImageFix"/>
<feGaussianBlur in="BackgroundImageFix" stdDeviation="2"/>
<feComposite in2="SourceAlpha" operator="in" result="effect1_backgroundBlur_2_28"/>
<feColorMatrix in="SourceAlpha" type="matrix" values="0 0 0 0 0 0 0 0 0 0 0 0 0 0 0 0 0 0 127 0" result="hardAlpha"/>
<feOffset dy="4"/>
<feGaussianBlur stdDeviation="2"/>
<feComposite in2="hardAlpha" operator="out"/>
<feColorMatrix type="matrix" values="0 0 0 0 0 0 0 0 0 0 0 0 0 0 0 0 0 0 0.25 0"/>
<feBlend mode="normal" in2="effect1_backgroundBlur_2_28" result="effect2_dropShadow_2_28"/>
<feBlend mode="normal" in="SourceGraphic" in2="effect2_dropShadow_2_28" result="shape"/>
<feColorMatrix in="SourceAlpha" type="matrix" values="0 0 0 0 0 0 0 0 0 0 0 0 0 0 0 0 0 0 127 0" result="hardAlpha"/>
<feOffset dx="-11" dy="8"/>
<feGaussianBlur stdDeviation="6"/>
<feComposite in2="hardAlpha" operator="arithmetic" k2="-1" k3="1"/>
<feColorMatrix type="matrix" values="0 0 0 0 0 0 0 0 0 0 0 0 0 0 0 0 0 0 0.25 0"/>
<feBlend mode="normal" in2="shape" result="effect3_innerShadow_2_28"/>
</filter>
</defs>
</svg>
