<svg width="95" height="95" viewBox="0 0 95 95" fill="none" xmlns="http://www.w3.org/2000/svg">
<circle cx="47.5" cy="47.5" r="42.5" fill="url(#paint0_linear_0_340)" stroke="url(#paint1_linear_0_340)" stroke-width="10"/>
<path d="M13.4581 47.625L47.441 81.6054V68.6006L27.0919 47.625H13.4581Z" fill="white"/>
<path d="M50.7255 81.5002L84.7083 47.5198H71.7011L50.7255 67.8664V81.5002Z" fill="white"/>
<path d="M47.1745 10.2915L13.5734 44.6488L26.5757 44.5044L47.3262 23.9253L47.1745 10.2915Z" fill="white"/>
<path d="M84.449 44.4827L50.5102 10.4583L50.493 23.4631L70.8152 44.4656L84.449 44.4827Z" fill="white"/>
<path d="M19.0002 10.2915C22.9281 12.986 26.8536 15.6804 30.7814 18.3749C40.7492 33.3913 50.7194 48.4078 60.6871 63.4268C51.806 57.5753 42.9248 51.7239 34.0436 45.8725C29.0316 34.013 24.0147 22.1535 19.0002 10.2915Z" fill="black"/>
<path d="M32.2837 18.5098C42.4081 29.1774 52.5325 39.8451 62.6568 50.5128L60.4812 36.5511C64.8765 30.9909 69.2743 25.4307 73.6696 19.8705C68.1118 24.2119 62.5565 28.5558 56.9987 32.8973C48.7588 28.1006 40.5212 23.304 32.2812 18.5073L32.2837 18.5098Z" fill="black"/>
<path d="M74.0197 20.4648C69.9915 34.544 65.9657 48.6232 61.9375 62.7048C57.4957 54.1687 53.0514 45.6351 48.6096 37.099C53.6804 42.4316 58.7536 47.7667 63.8243 53.0993C62.9482 47.6051 62.0745 42.1086 61.1984 36.6144C65.4713 31.2329 69.7467 25.8489 74.0197 20.4673V20.4648Z" fill="black"/>
<path d="M31.7209 18.7856C41.6104 33.528 51.4998 48.2704 61.3893 63.0104C56.8741 54.0338 52.3588 45.0572 47.8412 36.0805C42.4669 30.3148 37.0952 24.549 31.7209 18.7856Z" fill="black"/>
<path d="M46.0715 54.3596L59.5364 63.4219L43.2914 71.0476L46.0715 54.3596Z" fill="black"/>
<defs>
<linearGradient id="paint0_linear_0_340" x1="48.5" y1="2" x2="48" y2="111.5" gradientUnits="userSpaceOnUse">
<stop stop-color="#779DFF"/>
<stop offset="1" stop-color="#0031B0"/>
</linearGradient>
<linearGradient id="paint1_linear_0_340" x1="47.5" y1="0" x2="47.5" y2="95" gradientUnits="userSpaceOnUse">
<stop stop-color="#CCDAFF"/>
<stop offset="1" stop-color="#4D66A8" stop-opacity="0"/>
</linearGradient>
</defs>
</svg>
