<svg width="253" height="54" viewBox="0 0 253 54" fill="none" xmlns="http://www.w3.org/2000/svg">
<rect x="132.879" width="53.1988" height="53.1988" rx="10" fill="black"/>
<path d="M162.457 24.2985L173.994 10.8875H171.26L161.243 22.5318L153.242 10.8875H144.013L156.113 28.496L144.013 42.5593H146.748L157.326 30.2625L165.776 42.5593H175.004L162.457 24.2985H162.457ZM158.713 28.6509L157.487 26.8976L147.733 12.9456H151.932L159.803 24.2055L161.029 25.9588L171.261 40.5947H167.062L158.713 28.6517V28.6509Z" fill="white"/>
<path d="M53.4928 26.7464C53.4928 11.9707 41.5121 0 26.7464 0C11.9707 0 0 11.9707 0 26.7464C0 40.0928 9.77747 51.1591 22.5673 53.1635V34.4794H15.7754V26.7481H22.5673V20.8521C22.5673 14.1505 26.5541 10.4495 32.6657 10.4495C35.5927 10.4495 38.6569 10.971 38.6569 10.971V17.5523H35.2785C31.9619 17.5523 30.9255 19.6168 30.9255 21.7314V26.7464H38.3426L37.1507 34.4778H30.9255V53.1618C43.7053 51.1575 53.4928 40.0912 53.4928 26.7447V26.7464Z" fill="black"/>
<path d="M248.738 0.294189H203.379C201.301 0.294189 199.612 2.00651 199.612 4.10854V49.3848C199.612 51.4868 201.301 53.1991 203.379 53.1991H248.738C250.817 53.1991 252.517 51.4868 252.517 49.3848V4.10854C252.517 2.00651 250.817 0.294189 248.738 0.294189ZM215.602 45.6413H207.761V20.3933H215.614V45.6413H215.602ZM211.681 16.9451C209.166 16.9451 207.135 14.9021 207.135 12.3986C207.135 9.89502 209.166 7.85204 211.681 7.85204C214.185 7.85204 216.228 9.89502 216.228 12.3986C216.228 14.9139 214.197 16.9451 211.681 16.9451ZM244.995 45.6413H237.154V33.3598C237.154 30.4311 237.095 26.664 233.079 26.664C228.993 26.664 228.368 29.8525 228.368 33.1472V45.6413H220.526V20.3933H228.049V23.8416H228.155C229.206 21.8577 231.769 19.7675 235.583 19.7675C243.519 19.7675 244.995 24.9989 244.995 31.801V45.6413Z" fill="black"/>
<path d="M93.1858 20.8114C91.9539 20.8118 90.7498 21.1776 89.7258 21.8623C88.7017 22.547 87.9037 23.52 87.4326 24.6583C86.9615 25.7965 86.8385 27.0489 87.0791 28.257C87.3197 29.4652 87.9131 30.5749 88.7844 31.4458C89.6556 32.3167 90.7655 32.9097 91.9737 33.1499C93.182 33.39 94.4343 33.2665 95.5724 32.795C96.7104 32.3235 97.6831 31.5251 98.3675 30.5008C99.0518 29.4765 99.4171 28.2723 99.4171 27.0404C99.4159 25.3883 98.7589 23.8043 97.5905 22.6364C96.4221 21.4684 94.8378 20.812 93.1858 20.8114ZM107.752 16.024C107.75 16.0237 107.749 16.0226 107.748 16.0212C107.431 15.2184 106.953 14.4893 106.342 13.879C105.732 13.2681 105.002 12.7893 104.198 12.4722C101.746 11.5041 95.9067 11.7213 93.1858 11.7213C90.4648 11.7213 84.6317 11.4959 82.1723 12.4722C81.3687 12.7893 80.6388 13.2681 80.0279 13.879C79.417 14.4899 78.9382 15.2198 78.6211 16.0234C77.6541 18.4758 77.8702 24.3206 77.8702 27.0392C77.8702 29.7578 77.6541 35.5956 78.6257 38.0562C78.9428 38.8598 79.4217 39.5897 80.0326 40.2006C80.6435 40.8115 81.3734 41.2903 82.177 41.6074C84.6294 42.5755 90.4683 42.3583 93.1904 42.3583C95.9126 42.3583 101.743 42.5837 104.203 41.6074C105.006 41.2903 105.736 40.8115 106.347 40.2006C106.958 39.5897 107.437 38.8598 107.754 38.0562C108.729 35.6038 108.505 29.759 108.505 27.0404C108.505 24.3226 108.729 18.4886 107.755 16.0268C107.754 16.0254 107.753 16.0244 107.752 16.024ZM93.1858 36.6163C91.2918 36.6163 89.4404 36.0547 87.8657 35.0025C86.2909 33.9502 85.0636 32.4547 84.3388 30.7049C83.614 28.9552 83.4244 27.0298 83.7939 25.1722C84.1634 23.3147 85.0754 21.6084 86.4146 20.2692C87.7538 18.93 89.4601 18.018 91.3176 17.6485C93.1751 17.279 95.1005 17.4686 96.8503 18.1934C98.6001 18.9182 100.096 20.1456 101.148 21.7203C102.2 23.2951 102.762 25.1465 102.762 27.0404C102.763 28.2983 102.517 29.5442 102.036 30.7067C101.555 31.8692 100.85 32.9255 99.9604 33.815C99.0709 34.7045 98.0146 35.4098 96.8521 35.8905C95.6896 36.3712 94.4437 36.6178 93.1858 36.6163ZM103.159 19.3003C103.157 19.2988 103.155 19.2979 103.153 19.2979C102.712 19.2975 102.281 19.1666 101.914 18.9218C101.547 18.6763 101.26 18.3273 101.091 17.9189C100.921 17.5105 100.877 17.0611 100.963 16.6274C101.049 16.1938 101.262 15.7954 101.574 15.4827C101.887 15.17 102.285 14.957 102.719 14.8706C103.152 14.7843 103.602 14.8285 104.01 14.9976C104.419 15.1668 104.768 15.4533 105.014 15.8209C105.259 16.1885 105.39 16.6206 105.39 17.0628C105.392 17.3564 105.335 17.6473 105.223 17.9189C105.112 18.1906 104.948 18.4375 104.741 18.6456C104.534 18.8537 104.288 19.0188 104.016 19.1316C103.746 19.2439 103.457 19.302 103.164 19.3026C103.162 19.3026 103.16 19.3018 103.159 19.3003ZM113.739 0.881836H72.6326C71.146 0.881836 69.7202 1.4724 68.669 2.52362C67.6178 3.57484 67.0272 5.00059 67.0272 6.48724V47.5935C67.0272 49.0802 67.6178 50.5059 68.669 51.5572C69.7202 52.6084 71.146 53.1989 72.6326 53.1989H113.739C115.226 53.1989 116.651 52.6084 117.703 51.5572C118.754 50.5059 119.344 49.0802 119.344 47.5935V6.48724C119.344 5.00059 118.754 3.57484 117.703 2.52362C116.651 1.4724 115.226 0.881836 113.739 0.881836ZM111.74 34.7478C111.589 37.7409 110.906 40.3929 108.721 42.572C106.536 44.7511 103.886 45.4483 100.897 45.5908C97.8126 45.7648 88.566 45.7648 85.4818 45.5908C82.4888 45.4401 79.8461 44.7558 77.6576 42.572C75.4692 40.3883 74.7814 37.735 74.6389 34.7478C74.4649 31.6625 74.4649 22.4148 74.6389 19.333C74.7895 16.3399 75.4645 13.6878 77.6576 11.5087C79.8508 9.32965 82.5005 8.64065 85.4818 8.49818C88.566 8.32418 97.8126 8.32418 100.897 8.49818C103.89 8.64882 106.541 9.33315 108.721 11.5169C110.901 13.7007 111.597 16.3539 111.74 19.347C111.914 22.4206 111.914 31.6602 111.74 34.7478Z" fill="black"/>
</svg>
