<svg width="313" height="310" viewBox="0 0 313 310" fill="none" xmlns="http://www.w3.org/2000/svg">
<path d="M40.5151 264.474C40.436 264.474 40.3601 264.438 40.304 264.375C39.8834 263.897 39.1976 255.128 37.3507 229.022C36.595 218.339 35.8811 208.25 35.3602 202.118C35.3231 201.68 35.1736 201.629 35.1246 201.612C34.4116 201.368 32.2429 203.311 31.0322 205.012C30.9824 205.082 30.9102 205.126 30.8314 205.136C30.7526 205.145 30.6737 205.119 30.6121 205.062C30.5505 205.006 30.5112 204.924 30.5029 204.834C30.4945 204.745 30.5178 204.655 30.5676 204.585C31.3684 203.46 33.9778 200.511 35.2963 200.962C35.5623 201.053 35.8934 201.316 35.9549 202.052C36.4762 208.19 37.19 218.282 37.946 228.967C39.0683 244.832 40.3399 262.805 40.7576 263.937C40.7896 263.987 40.8087 264.047 40.8127 264.109C40.8168 264.172 40.8057 264.234 40.7806 264.289C40.7556 264.345 40.7175 264.391 40.6707 264.424C40.6239 264.456 40.57 264.474 40.5151 264.474Z" fill="#494949"/>
<path d="M34.594 213.37C39.5483 208.858 41.1903 201.836 38.2616 197.685C35.3329 193.534 28.9425 193.826 23.9882 198.338C19.0339 202.85 17.3919 209.872 20.3206 214.023C23.2493 218.174 29.6397 217.882 34.594 213.37Z" fill="#0CBC8B"/>
<path opacity="0.2" d="M34.594 213.37C39.5483 208.858 41.1903 201.836 38.2616 197.685C35.3329 193.534 28.9425 193.826 23.9882 198.338C19.0339 202.85 17.3919 209.872 20.3206 214.023C23.2493 218.174 29.6397 217.882 34.594 213.37Z" fill="white"/>
<path d="M21.709 215.078C21.6807 215.078 21.653 215.069 21.6291 215.052C21.6053 215.034 21.5862 215.01 21.5742 214.981C21.5622 214.952 21.5577 214.919 21.5613 214.887C21.5648 214.855 21.5763 214.825 21.5944 214.8L35.7137 195.456C35.7392 195.423 35.7754 195.402 35.8144 195.398C35.8534 195.394 35.8921 195.408 35.9222 195.437C35.9523 195.465 35.9713 195.506 35.9753 195.55C35.9792 195.594 35.9677 195.638 35.9433 195.673L21.824 215.017C21.8099 215.036 21.7924 215.052 21.7725 215.062C21.7526 215.073 21.731 215.078 21.709 215.078Z" fill="white"/>
<path d="M43.5947 260.327C43.5471 260.327 43.5001 260.314 43.4577 260.289C43.4153 260.264 43.3788 260.228 43.3512 260.184C43.3236 260.14 43.3057 260.089 43.2989 260.036C43.2922 259.982 43.2969 259.927 43.3126 259.876L48.6162 242.547C48.7724 242.038 49.0385 241.582 49.3902 241.22C49.7418 240.857 50.1679 240.601 50.6292 240.475C51.0906 240.348 51.5725 240.355 52.0308 240.495C52.4891 240.635 52.9092 240.904 53.2526 241.276L56.0564 244.319C56.1136 244.381 56.1468 244.467 56.1486 244.557C56.1504 244.647 56.1207 244.734 56.0659 244.799C56.0112 244.864 55.936 244.902 55.8568 244.904C55.7777 244.906 55.701 244.872 55.6438 244.81L52.84 241.767C52.5689 241.473 52.2373 241.261 51.8756 241.151C51.5138 241.04 51.1334 241.035 50.7693 241.135C50.4052 241.235 50.0689 241.437 49.7913 241.722C49.5136 242.008 49.3036 242.368 49.1802 242.77L43.8766 260.099C43.8562 260.166 43.8182 260.223 43.7677 260.264C43.7172 260.305 43.6567 260.327 43.5947 260.327Z" fill="#494949"/>
<path d="M63.8899 253.913C67.5615 250.611 67.3433 243.349 63.4026 237.692C59.4618 232.036 53.2908 230.127 49.6192 233.429C45.9477 236.731 46.1659 243.993 50.1066 249.649C54.0473 255.306 60.2184 257.214 63.8899 253.913Z" fill="#0CBC8B"/>
<path d="M38.1059 263.369C38.0388 263.369 37.9736 263.343 37.921 263.296C37.8683 263.249 37.8312 263.183 37.8157 263.108L28.9155 220.829C28.8547 220.541 28.7251 220.277 28.5409 220.067C28.3568 219.857 28.1253 219.709 27.8718 219.639C27.6184 219.569 27.3528 219.58 27.1043 219.67C26.8559 219.76 26.6341 219.926 26.4634 220.151L23.72 223.753C23.6943 223.786 23.663 223.814 23.628 223.834C23.5929 223.854 23.5547 223.866 23.5156 223.869C23.4765 223.872 23.4372 223.867 23.4 223.853C23.3628 223.839 23.3283 223.816 23.2987 223.787C23.269 223.758 23.2447 223.722 23.2271 223.683C23.2095 223.643 23.199 223.599 23.1962 223.555C23.1934 223.511 23.1983 223.466 23.2106 223.424C23.223 223.381 23.2426 223.342 23.2682 223.309L26.0117 219.707C26.2543 219.388 26.5696 219.152 26.9228 219.024C27.276 218.895 27.6535 218.88 28.0137 218.98C28.3739 219.08 28.7029 219.291 28.9645 219.59C29.226 219.888 29.41 220.263 29.4962 220.673L38.3964 262.952C38.4148 263.04 38.4018 263.132 38.3604 263.209C38.319 263.285 38.2524 263.34 38.1754 263.361C38.1526 263.367 38.1292 263.369 38.1059 263.369Z" fill="#494949"/>
<path d="M34.822 233.145C35.9039 226.037 33.0405 219.539 28.4264 218.633C23.8123 217.726 19.1948 222.754 18.1128 229.862C17.0309 236.971 19.8943 243.468 24.5084 244.374C29.1225 245.281 33.74 240.253 34.822 233.145Z" fill="#0CBC8B"/>
<path d="M40.5158 264.473C40.5034 264.474 40.4911 264.473 40.4788 264.471C40.4398 264.466 40.4022 264.452 40.3681 264.43C40.3339 264.408 40.3039 264.378 40.2798 264.343C40.2556 264.308 40.2378 264.268 40.2273 264.225C40.2169 264.182 40.2139 264.137 40.2187 264.093L45.9025 211.667C45.9643 211.095 46.1701 210.557 46.495 210.115C46.8198 209.674 47.25 209.349 47.7338 209.178C48.2176 209.008 48.7344 209 49.2221 209.155C49.7097 209.311 50.1475 209.623 50.4827 210.054L56.9788 218.413C57.0048 218.447 57.0247 218.486 57.0375 218.528C57.0502 218.57 57.0555 218.615 57.0531 218.659C57.0507 218.704 57.0405 218.747 57.0233 218.787C57.0061 218.827 56.9821 218.863 56.9527 218.892C56.9233 218.922 56.889 218.945 56.8519 218.959C56.8148 218.974 56.7756 218.98 56.7364 218.977C56.6973 218.974 56.6589 218.963 56.6237 218.943C56.5884 218.923 56.5569 218.896 56.531 218.863L50.0355 210.504C49.7764 210.17 49.4381 209.929 49.0612 209.809C48.6843 209.689 48.2849 209.695 47.911 209.826C47.5371 209.958 47.2046 210.209 46.9535 210.551C46.7023 210.892 46.5433 211.308 46.4954 211.749L40.8117 264.176C40.8027 264.258 40.7677 264.334 40.7132 264.388C40.6588 264.443 40.5886 264.473 40.5158 264.473Z" fill="#494949"/>
<path d="M63.6414 223.059C65.9079 218.404 63.2411 211.799 57.685 208.308C52.1289 204.816 45.7875 205.759 43.5209 210.414C41.2544 215.07 43.9212 221.674 49.4773 225.166C55.0334 228.657 61.3749 227.714 63.6414 223.059Z" fill="#0CBC8B"/>
<path opacity="0.2" d="M63.8899 253.913C67.5615 250.611 67.3433 243.349 63.4026 237.692C59.4618 232.036 53.2908 230.127 49.6192 233.429C45.9477 236.731 46.1659 243.993 50.1066 249.649C54.0473 255.306 60.2184 257.214 63.8899 253.913Z" fill="white"/>
<path opacity="0.5" d="M34.822 233.145C35.9039 226.037 33.0405 219.539 28.4264 218.633C23.8123 217.726 19.1948 222.754 18.1128 229.862C17.0309 236.971 19.8943 243.468 24.5084 244.374C29.1225 245.281 33.74 240.253 34.822 233.145Z" fill="white"/>
<path opacity="0.5" d="M63.6414 223.059C65.9079 218.404 63.2411 211.799 57.685 208.308C52.1289 204.816 45.7875 205.759 43.5209 210.414C41.2544 215.07 43.9212 221.674 49.4773 225.166C55.0334 228.657 61.3749 227.714 63.6414 223.059Z" fill="white"/>
<path d="M47.7847 308.958H33.2459L30.8365 256.108H50.1938L47.7847 308.958Z" fill="#292A2E"/>
<path opacity="0.3" d="M47.7847 308.958H33.2459L30.8365 256.108H50.1938L47.7847 308.958Z" fill="white"/>
<path d="M63.8909 254.081C63.8683 254.081 63.846 254.076 63.8257 254.064C63.8054 254.053 63.7875 254.037 63.7736 254.017L49.5023 233.534C49.4901 233.516 49.4811 233.496 49.4757 233.475C49.4704 233.453 49.4688 233.431 49.471 233.409C49.4733 233.387 49.4794 233.365 49.4889 233.346C49.4984 233.326 49.5113 233.309 49.5266 233.295C49.542 233.282 49.5596 233.271 49.5785 233.265C49.5973 233.259 49.6171 233.257 49.6365 233.26C49.656 233.262 49.6749 233.269 49.692 233.28C49.7091 233.291 49.7242 233.306 49.7364 233.323L64.0076 253.806C64.0251 253.831 64.036 253.861 64.0391 253.893C64.0422 253.925 64.0374 253.957 64.0252 253.985C64.013 254.014 63.994 254.038 63.9702 254.055C63.9464 254.072 63.919 254.081 63.8909 254.081Z" fill="white"/>
<path d="M62.6924 224.7C62.6606 224.7 62.6297 224.688 62.6043 224.666L44.3425 209.517C44.3266 209.504 44.3132 209.487 44.303 209.468C44.2928 209.449 44.286 209.428 44.283 209.406C44.28 209.384 44.2808 209.362 44.2854 209.34C44.29 209.318 44.2984 209.298 44.3099 209.28C44.3215 209.262 44.3361 209.247 44.3528 209.235C44.3696 209.223 44.3882 209.216 44.4075 209.212C44.4269 209.209 44.4467 209.21 44.4658 209.215C44.4848 209.22 44.5028 209.23 44.5186 209.243L62.7805 224.393C62.8055 224.414 62.824 224.444 62.8334 224.478C62.8427 224.512 62.8424 224.548 62.8325 224.582C62.8226 224.616 62.8036 224.645 62.7782 224.666C62.7528 224.687 62.7222 224.698 62.6909 224.698L62.6924 224.7Z" fill="white"/>
<path d="M23.7675 244.153C23.7545 244.153 23.7415 244.151 23.729 244.147C23.6907 244.136 23.6581 244.107 23.6383 244.068C23.6185 244.029 23.6131 243.983 23.6233 243.94L29.4369 219.194C29.4412 219.171 29.4494 219.15 29.4611 219.131C29.4728 219.113 29.4878 219.097 29.505 219.085C29.5223 219.073 29.5414 219.065 29.5614 219.062C29.5814 219.059 29.6018 219.06 29.6213 219.066C29.6408 219.072 29.6591 219.082 29.6749 219.096C29.6908 219.11 29.704 219.128 29.7137 219.148C29.7234 219.168 29.7294 219.191 29.7313 219.213C29.7333 219.236 29.7311 219.259 29.725 219.281L23.9114 244.027C23.9029 244.063 23.8842 244.095 23.8582 244.118C23.8322 244.14 23.8003 244.153 23.7675 244.153Z" fill="white"/>
<path d="M133.648 260.863H83.1491L75.2372 267.595V231.958C75.2372 230.627 75.7027 229.35 76.5314 228.408C77.3601 227.467 78.484 226.938 79.6559 226.938H133.648C134.82 226.938 135.944 227.467 136.773 228.408C137.602 229.35 138.067 230.627 138.067 231.958V255.842C138.067 256.501 137.953 257.154 137.731 257.763C137.509 258.372 137.183 258.926 136.773 259.392C136.363 259.858 135.876 260.228 135.34 260.48C134.803 260.733 134.229 260.863 133.648 260.863Z" fill="#F4F4F4"/>
<path d="M132.483 234.487H80.8219C80.7971 234.488 80.7723 234.484 80.7491 234.474C80.7258 234.464 80.7046 234.448 80.6867 234.429C80.6688 234.409 80.6545 234.386 80.6448 234.36C80.635 234.334 80.63 234.306 80.63 234.278C80.63 234.25 80.635 234.222 80.6448 234.196C80.6545 234.17 80.6688 234.146 80.6867 234.127C80.7046 234.107 80.7258 234.092 80.7491 234.082C80.7723 234.072 80.7971 234.067 80.8219 234.068H132.483C132.508 234.067 132.533 234.072 132.556 234.082C132.579 234.092 132.601 234.107 132.619 234.127C132.636 234.146 132.651 234.17 132.66 234.196C132.67 234.222 132.675 234.25 132.675 234.278C132.675 234.306 132.67 234.334 132.66 234.36C132.651 234.386 132.636 234.409 132.619 234.429C132.601 234.448 132.579 234.464 132.556 234.474C132.533 234.484 132.508 234.488 132.483 234.487Z" fill="white"/>
<path d="M132.483 241.244H80.8219C80.7971 241.245 80.7723 241.24 80.7491 241.23C80.7258 241.22 80.7046 241.205 80.6867 241.185C80.6688 241.166 80.6545 241.142 80.6448 241.116C80.635 241.09 80.63 241.062 80.63 241.034C80.63 241.006 80.635 240.978 80.6448 240.952C80.6545 240.926 80.6688 240.902 80.6867 240.883C80.7046 240.863 80.7258 240.848 80.7491 240.838C80.7723 240.828 80.7971 240.823 80.8219 240.825H132.483C132.508 240.823 132.533 240.828 132.556 240.838C132.579 240.848 132.601 240.863 132.619 240.883C132.636 240.902 132.651 240.926 132.66 240.952C132.67 240.978 132.675 241.006 132.675 241.034C132.675 241.062 132.67 241.09 132.66 241.116C132.651 241.142 132.636 241.166 132.619 241.185C132.601 241.205 132.579 241.22 132.556 241.23C132.533 241.24 132.508 241.245 132.483 241.244Z" fill="white"/>
<path d="M132.483 247.999H80.822C80.7732 247.999 80.7263 247.977 80.6918 247.938C80.6572 247.899 80.6378 247.845 80.6378 247.79C80.6378 247.734 80.6572 247.681 80.6918 247.642C80.7263 247.603 80.7732 247.581 80.822 247.581H132.483C132.532 247.581 132.579 247.603 132.614 247.642C132.648 247.681 132.668 247.734 132.668 247.79C132.668 247.845 132.648 247.899 132.614 247.938C132.579 247.977 132.532 247.999 132.483 247.999Z" fill="white"/>
<path d="M121.424 254.756H80.8219C80.7971 254.757 80.7723 254.752 80.7491 254.742C80.7258 254.732 80.7046 254.717 80.6867 254.697C80.6688 254.678 80.6545 254.654 80.6448 254.628C80.635 254.602 80.63 254.574 80.63 254.546C80.63 254.518 80.635 254.49 80.6448 254.464C80.6545 254.438 80.6688 254.414 80.6867 254.395C80.7046 254.375 80.7258 254.36 80.7491 254.35C80.7723 254.34 80.7971 254.335 80.8219 254.337H121.424C121.448 254.335 121.473 254.34 121.497 254.35C121.52 254.36 121.541 254.375 121.559 254.395C121.577 254.414 121.591 254.438 121.601 254.464C121.611 254.49 121.616 254.518 121.616 254.546C121.616 254.574 121.611 254.602 121.601 254.628C121.591 254.654 121.577 254.678 121.559 254.697C121.541 254.717 121.52 254.732 121.497 254.742C121.473 254.752 121.448 254.757 121.424 254.756Z" fill="white"/>
<path d="M86.7913 168.07H9.75939L0 176.375V132.411C7.91807e-05 130.769 0.574555 129.193 1.59706 128.032C2.61956 126.87 4.00634 126.217 5.45234 126.217H86.7913C88.2373 126.217 89.6241 126.87 90.6465 128.032C91.669 129.193 92.2434 130.769 92.2434 132.411V161.875C92.2433 163.518 91.6689 165.094 90.6464 166.255C89.624 167.417 88.2373 168.07 86.7913 168.07Z" fill="#F4F4F4"/>
<path d="M85.3556 135.532H6.88992C6.82958 135.532 6.77171 135.504 6.72905 135.456C6.68638 135.407 6.66241 135.342 6.66241 135.273C6.66241 135.205 6.68638 135.139 6.72905 135.09C6.77171 135.042 6.82958 135.015 6.88992 135.015H85.3556C85.4159 135.015 85.4738 135.042 85.5164 135.09C85.5591 135.139 85.5831 135.205 85.5831 135.273C85.5831 135.342 85.5591 135.407 85.5164 135.456C85.4738 135.504 85.4159 135.532 85.3556 135.532Z" fill="white"/>
<path d="M85.3554 143.866H6.8898C6.85925 143.867 6.82879 143.861 6.80024 143.849C6.77169 143.837 6.74563 143.818 6.72363 143.794C6.70162 143.77 6.68412 143.741 6.67217 143.709C6.66021 143.677 6.65405 143.642 6.65405 143.608C6.65405 143.573 6.66021 143.538 6.67217 143.507C6.68412 143.475 6.70162 143.446 6.72363 143.422C6.74563 143.397 6.77169 143.379 6.80024 143.366C6.82879 143.354 6.85925 143.348 6.8898 143.349H85.3554C85.4143 143.352 85.4701 143.38 85.511 143.428C85.5519 143.476 85.5747 143.541 85.5747 143.608C85.5747 143.675 85.5519 143.739 85.511 143.787C85.4701 143.835 85.4143 143.863 85.3554 143.866Z" fill="white"/>
<path d="M85.3554 152.201H6.8898C6.85925 152.202 6.82879 152.196 6.80024 152.184C6.77169 152.172 6.74563 152.153 6.72363 152.129C6.70162 152.104 6.68412 152.076 6.67217 152.044C6.66021 152.012 6.65405 151.977 6.65405 151.943C6.65405 151.908 6.66021 151.873 6.67217 151.841C6.68412 151.81 6.70162 151.781 6.72363 151.757C6.74563 151.732 6.77169 151.714 6.80024 151.701C6.82879 151.689 6.85925 151.683 6.8898 151.684H85.3554C85.4143 151.687 85.4701 151.715 85.511 151.763C85.5519 151.811 85.5747 151.876 85.5747 151.943C85.5747 152.009 85.5519 152.074 85.511 152.122C85.4701 152.17 85.4143 152.198 85.3554 152.201Z" fill="white"/>
<path d="M71.7113 160.536H6.88992C6.82958 160.536 6.77171 160.509 6.72905 160.46C6.68638 160.412 6.66241 160.346 6.66241 160.277C6.66241 160.209 6.68638 160.143 6.72905 160.095C6.77171 160.046 6.82958 160.019 6.88992 160.019H71.7113C71.7716 160.019 71.8295 160.046 71.8721 160.095C71.9148 160.143 71.9388 160.209 71.9388 160.277C71.9388 160.346 71.9148 160.412 71.8721 160.46C71.8295 160.509 71.7716 160.536 71.7113 160.536Z" fill="white"/>
<path d="M135.773 196.372H227.616L239.253 206.277V153.859C239.253 151.901 238.567 150.023 237.348 148.638C236.129 147.253 234.476 146.476 232.752 146.476H135.773C134.05 146.476 132.397 147.254 131.178 148.639C129.959 150.023 129.274 151.901 129.274 153.859V188.988C129.274 190.946 129.959 192.824 131.178 194.209C132.396 195.594 134.049 196.372 135.773 196.372Z" fill="#F4F4F4"/>
<path d="M137.487 157.579H231.039C231.109 157.577 231.176 157.543 231.225 157.485C231.274 157.428 231.301 157.351 231.301 157.271C231.301 157.191 231.274 157.114 231.225 157.057C231.176 156.999 231.109 156.966 231.039 156.963H137.487C137.417 156.966 137.35 156.999 137.301 157.057C137.252 157.114 137.225 157.191 137.225 157.271C137.225 157.351 137.252 157.428 137.301 157.485C137.35 157.543 137.417 157.577 137.487 157.579Z" fill="white"/>
<path d="M137.487 167.516H231.039C231.109 167.514 231.176 167.48 231.225 167.423C231.274 167.365 231.301 167.288 231.301 167.208C231.301 167.128 231.274 167.051 231.225 166.994C231.176 166.936 231.109 166.903 231.039 166.9H137.487C137.417 166.903 137.35 166.936 137.301 166.994C137.252 167.051 137.225 167.128 137.225 167.208C137.225 167.288 137.252 167.365 137.301 167.423C137.35 167.48 137.417 167.514 137.487 167.516Z" fill="white"/>
<path d="M137.487 177.454H231.039C231.109 177.451 231.176 177.417 231.225 177.36C231.274 177.302 231.301 177.226 231.301 177.146C231.301 177.066 231.274 176.989 231.225 176.931C231.176 176.874 231.109 176.84 231.039 176.837H137.487C137.417 176.84 137.35 176.874 137.301 176.931C137.252 176.989 137.225 177.066 137.225 177.146C137.225 177.226 137.252 177.302 137.301 177.36C137.35 177.417 137.417 177.451 137.487 177.454Z" fill="white"/>
<path d="M153.754 187.391H231.039C231.109 187.388 231.176 187.355 231.225 187.297C231.274 187.24 231.301 187.163 231.301 187.083C231.301 187.003 231.274 186.926 231.225 186.868C231.176 186.811 231.109 186.777 231.039 186.775H153.754C153.683 186.777 153.617 186.811 153.568 186.868C153.519 186.926 153.491 187.003 153.491 187.083C153.491 187.163 153.519 187.24 153.568 187.297C153.617 187.355 153.683 187.388 153.754 187.391Z" fill="white"/>
<path d="M209.336 106.578H286.367L296.127 114.883V70.9198C296.127 69.2773 295.553 67.702 294.53 66.5404C293.508 65.3788 292.122 64.726 290.676 64.7256H209.336C207.89 64.7259 206.503 65.3786 205.481 66.5402C204.459 67.7018 203.884 69.2771 203.884 70.9198V100.383C203.884 102.026 204.459 103.602 205.481 104.763C206.503 105.925 207.89 106.578 209.336 106.578Z" fill="#F4F4F4"/>
<path d="M210.773 74.0399H289.237C289.298 74.0399 289.356 74.0127 289.398 73.9642C289.441 73.9157 289.465 73.85 289.465 73.7814C289.465 73.7129 289.441 73.6471 289.398 73.5987C289.356 73.5502 289.298 73.5229 289.237 73.5229H210.773C210.712 73.5229 210.655 73.5502 210.612 73.5987C210.569 73.6471 210.545 73.7129 210.545 73.7814C210.545 73.85 210.569 73.9157 210.612 73.9642C210.655 74.0127 210.712 74.0399 210.773 74.0399Z" fill="white"/>
<path d="M210.773 82.3743H289.238C289.296 82.3719 289.352 82.3436 289.393 82.2954C289.434 82.2472 289.457 82.1829 289.457 82.116C289.457 82.049 289.434 81.9847 289.393 81.9365C289.352 81.8884 289.296 81.8601 289.238 81.8577H210.773C210.714 81.8601 210.658 81.8884 210.617 81.9365C210.576 81.9847 210.554 82.049 210.554 82.116C210.554 82.1829 210.576 82.2472 210.617 82.2954C210.658 82.3436 210.714 82.3719 210.773 82.3743Z" fill="white"/>
<path d="M210.773 90.7107H289.238C289.296 90.7083 289.352 90.68 289.393 90.6318C289.434 90.5836 289.457 90.5193 289.457 90.4524C289.457 90.3855 289.434 90.3211 289.393 90.273C289.352 90.2248 289.296 90.1965 289.238 90.1941H210.773C210.714 90.1965 210.658 90.2248 210.617 90.273C210.576 90.3211 210.554 90.3855 210.554 90.4524C210.554 90.5193 210.576 90.5836 210.617 90.6318C210.658 90.68 210.714 90.7083 210.773 90.7107Z" fill="white"/>
<path d="M224.416 99.0439H289.237C289.296 99.0415 289.352 99.0132 289.393 98.965C289.434 98.9168 289.457 98.8525 289.457 98.7856C289.457 98.7186 289.434 98.6543 289.393 98.6061C289.352 98.558 289.296 98.5297 289.237 98.5273H224.416C224.386 98.526 224.355 98.5318 224.327 98.5442C224.298 98.5566 224.272 98.5754 224.25 98.5995C224.228 98.6236 224.211 98.6525 224.199 98.6845C224.187 98.7165 224.181 98.7508 224.181 98.7856C224.181 98.8203 224.187 98.8547 224.199 98.8866C224.211 98.9186 224.228 98.9475 224.25 98.9716C224.272 98.9957 224.298 99.0146 224.327 99.027C224.355 99.0394 224.386 99.0451 224.416 99.0439Z" fill="white"/>
<path d="M26.4771 155.011L180.405 155.011C184.478 155.011 187.78 151.26 187.78 146.632L187.78 8.65829C187.78 4.0305 184.478 0.278931 180.405 0.278931L26.4771 0.278931C22.4038 0.278931 19.1017 4.0305 19.1017 8.65829L19.1017 146.632C19.1017 151.26 22.4038 155.011 26.4771 155.011Z" fill="white"/>
<path d="M18.8555 146.632V8.65885C18.8578 6.36318 19.6615 4.16228 21.0903 2.539C22.5191 0.915709 24.4563 0.00260357 26.4769 0H180.405C182.425 0.00269316 184.362 0.915827 185.791 2.53909C187.22 4.16236 188.024 6.36321 188.026 8.65885V146.632C188.024 148.928 187.22 151.129 185.791 152.752C184.362 154.376 182.425 155.289 180.405 155.291H26.4769C24.4563 155.289 22.519 154.376 21.0902 152.752C19.6614 151.129 18.8577 148.928 18.8555 146.632ZM26.4769 0.558668C24.5867 0.561092 22.7745 1.41528 21.4378 2.93384C20.1012 4.45239 19.3494 6.51129 19.3473 8.65885V146.632C19.3494 148.78 20.1012 150.839 21.4378 152.357C22.7745 153.876 24.5867 154.73 26.4769 154.733H180.405C182.295 154.73 184.107 153.876 185.444 152.357C186.78 150.839 187.532 148.78 187.534 146.632V8.65885C187.532 6.51127 186.78 4.45231 185.444 2.93374C184.107 1.41516 182.295 0.561003 180.405 0.558668H26.4769Z" fill="#292A2E"/>
<path d="M19.1015 8.65739V17.0897H187.779V8.65739C187.779 6.43531 187.002 4.30425 185.619 2.73301C184.236 1.16177 182.36 0.279053 180.405 0.279053H26.4769C25.5084 0.278919 24.5493 0.495533 23.6545 0.916523C22.7597 1.33751 21.9466 1.95464 21.2618 2.73265C20.5769 3.51066 20.0336 4.43433 19.6629 5.4509C19.2923 6.46747 19.1015 7.55704 19.1015 8.65739Z" fill="#292A2E"/>
<path d="M153.549 45.2257C153.597 45.0168 153.682 44.8211 153.799 44.6507C153.915 44.4803 154.061 44.3387 154.228 44.2345C154.394 44.1303 154.577 44.0657 154.767 44.0448C154.956 44.0238 155.147 44.0468 155.328 44.1125C155.674 44.2532 155.961 44.5381 156.129 44.9096C156.298 45.2811 156.336 45.7115 156.236 46.1138L155.758 48.1907L159.909 42.4212C160.36 41.7706 161.282 41.3001 161.89 41.9243C162.138 42.1469 162.312 42.4584 162.384 42.808C162.456 43.1575 162.421 43.5245 162.286 43.8489C162.293 43.8523 162.3 43.8566 162.306 43.8618C162.309 43.8663 162.313 43.8711 162.316 43.876L163.013 42.8727C163.141 42.6879 163.304 42.5379 163.49 42.4333C163.675 42.3288 163.879 42.2723 164.086 42.268C164.293 42.2638 164.499 42.3118 164.687 42.4086C164.876 42.5054 165.044 42.6486 165.178 42.8279C165.387 43.1186 165.501 43.4824 165.501 43.8577C165.501 44.233 165.387 44.5968 165.178 44.8875L164.882 45.3146C164.889 45.3304 164.893 45.3477 164.895 45.3655C165.151 45.1318 165.472 45.0083 165.801 45.0166C166.129 45.025 166.445 45.1647 166.692 45.4113C166.96 45.6981 167.121 46.0898 167.145 46.507C167.168 46.9243 167.051 47.336 166.817 47.6588L166.088 48.7083C166.104 48.7021 166.121 48.6997 166.137 48.7011C166.153 48.7025 166.169 48.7078 166.184 48.7166C166.199 48.7254 166.211 48.7375 166.222 48.7522C166.232 48.7669 166.239 48.7838 166.243 48.8019C166.518 48.6685 166.823 48.6383 167.113 48.7158C167.404 48.7933 167.665 48.9745 167.859 49.2327C168.068 49.5234 168.182 49.8872 168.182 50.2626C168.182 50.6379 168.068 51.0017 167.859 51.2924L161.646 60.2396C160.777 61.491 159.599 62.4191 158.263 62.905C156.926 63.3909 155.493 63.4124 154.145 62.9668L149.808 61.5309L153.549 45.2257Z" fill="#E98862"/>
<g opacity="0.2">
<path d="M158.205 49.5841C158.231 49.6075 158.265 49.6182 158.298 49.6139C158.332 49.6096 158.362 49.5906 158.384 49.561L162.325 44.0683C162.346 44.0382 162.357 43.9995 162.353 43.9608C162.35 43.9221 162.333 43.8866 162.306 43.8621C162.28 43.8375 162.246 43.8259 162.212 43.8299C162.178 43.8338 162.146 43.8529 162.125 43.8831L158.184 49.3758C158.162 49.406 158.152 49.4446 158.156 49.4833C158.159 49.5219 158.176 49.5574 158.202 49.582L158.205 49.5841Z" fill="#0C0C0C"/>
</g>
<g opacity="0.2">
<path d="M160.29 51.6263C160.316 51.6498 160.35 51.6605 160.384 51.6562C160.417 51.6519 160.448 51.6329 160.469 51.6032L164.868 45.4734C164.89 45.4432 164.9 45.4045 164.896 45.3658C164.893 45.3271 164.876 45.2915 164.85 45.2669C164.823 45.2437 164.789 45.233 164.755 45.2369C164.721 45.2408 164.69 45.259 164.668 45.2879L160.269 51.4176C160.247 51.4478 160.237 51.4865 160.241 51.5253C160.244 51.564 160.261 51.5996 160.287 51.6242L160.29 51.6263Z" fill="#0C0C0C"/>
</g>
<g opacity="0.2">
<path d="M162.536 53.8525C162.563 53.876 162.596 53.8867 162.63 53.8824C162.663 53.8781 162.694 53.8591 162.715 53.8294L166.224 48.9398C166.244 48.9094 166.253 48.8716 166.249 48.8341C166.245 48.7966 166.228 48.7624 166.202 48.7385C166.176 48.7147 166.143 48.703 166.11 48.706C166.077 48.709 166.046 48.7264 166.024 48.7546L162.515 53.6442C162.504 53.6591 162.496 53.6763 162.492 53.6947C162.487 53.7132 162.485 53.7325 162.487 53.7517C162.488 53.7708 162.493 53.7894 162.502 53.8064C162.51 53.8233 162.52 53.8383 162.534 53.8504L162.536 53.8525Z" fill="#0C0C0C"/>
</g>
<path d="M72.6535 33.1792C72.6535 33.1792 71.0314 42.4659 68.7871 45.5907C62.3262 54.586 59.5183 65.3662 64.2081 71.9061C68.8979 78.4459 103.001 83.5693 107.1 70.724C110.551 59.9098 106.019 58.0221 105.935 48.6679C105.897 44.4353 105.482 35.5102 105.482 35.5102" fill="#0A0A0A"/>
<path d="M100.077 65.5888C100.017 65.58 99.3587 78.0037 86.6569 76.9182C77.8637 76.1699 74.7285 65.5705 74.527 65.5705C75.4749 65.3415 77.0713 65.0084 77.4926 64.7534C78.877 63.9081 80.5905 63.0285 81.0368 59.9736C81.2939 58.2128 80.8577 49.2049 80.9917 47.4231L94.4894 50.8457C94.301 54.6081 92.9808 63.3307 97.6076 64.8745C98.3773 65.1309 99.2064 65.3656 100.077 65.5888Z" fill="#E98862"/>
<path opacity="0.5" d="M94.6788 61.3106C94.4674 60.5364 94.3313 59.7382 94.2727 58.9304C94.1248 57.087 94.1548 55.2308 94.3623 53.3949C91.6189 52.974 89.0343 51.6876 86.9021 49.6816C86.6517 50.7332 85.2732 55.328 85.6548 56.3277C86.3752 58.217 89.7651 61.3106 94.6788 61.3106Z" fill="#0C0C0C"/>
<path d="M92.3335 58.3522C86.9893 58.1524 80.4364 54.7448 79.9363 46.5517L79.4852 39.157C78.9851 30.9639 82.3672 24.0234 89.1586 23.4885C95.9485 22.9536 101.43 29.1956 101.929 37.3887L102.129 40.6617C102.32 43.8072 101.867 58.7087 92.3335 58.3522Z" fill="#E98862"/>
<path d="M91.7833 49.0657C92.5297 49.4863 94.0823 50.0494 96.2367 49.1976C96.4716 49.1047 96.6508 49.4089 96.5317 49.7098C96.0749 50.8631 95.0305 52.1941 93.197 51.7383C92.7263 51.646 92.2945 51.3831 91.9662 50.9888C91.6379 50.5946 91.4308 50.0902 91.3758 49.5511C91.3265 49.2427 91.5737 48.9476 91.7833 49.0657Z" fill="white"/>
<path d="M100.239 41.2963C100.702 41.2963 101.078 40.8699 101.078 40.3438C101.078 39.8178 100.702 39.3914 100.239 39.3914C99.7764 39.3914 99.4011 39.8178 99.4011 40.3438C99.4011 40.8699 99.7764 41.2963 100.239 41.2963Z" fill="#0C0C0C"/>
<path d="M91.6347 41.2963C92.0977 41.2963 92.473 40.8699 92.473 40.3438C92.473 39.8178 92.0977 39.3914 91.6347 39.3914C91.1717 39.3914 90.7963 39.8178 90.7963 40.3438C90.7963 40.8699 91.1717 41.2963 91.6347 41.2963Z" fill="#0C0C0C"/>
<path opacity="0.5" d="M95.5919 47.5236H95.6051C95.8803 47.4997 96.1542 47.4586 96.4255 47.4005C96.8309 47.3102 97.3669 47.1427 97.3421 46.7333C97.3122 46.2662 95.8806 41.3179 95.7173 40.7551C95.7017 40.7079 95.6706 40.6693 95.6305 40.6476C95.5905 40.6258 95.5446 40.6225 95.5024 40.6383C95.4602 40.6541 95.4251 40.6879 95.4043 40.7325C95.3835 40.7771 95.3788 40.8291 95.391 40.8776C96.0027 42.9851 96.9802 46.446 96.9993 46.7601C96.9396 46.8957 96.264 47.0803 95.5812 47.1332C95.5372 47.1373 95.4963 47.1604 95.4669 47.1978C95.4375 47.2351 95.4219 47.2839 95.4232 47.334C95.4246 47.3841 95.4429 47.4317 95.4743 47.4669C95.5057 47.5022 95.5478 47.5223 95.5919 47.5233V47.5236Z" fill="#0C0C0C"/>
<path d="M73.9096 40.9646L79.9922 40.5237C84.7169 39.057 87.0042 30.3723 87.0042 30.3723C87.0042 30.3723 91.8492 37.1734 105.481 35.5086C105.481 35.5086 105.01 14.1221 84.7656 17.6003C78.2378 18.7217 72.9461 25.3501 72.5036 35.1005C72.1934 41.9331 73.9096 40.9646 73.9096 40.9646Z" fill="#0A0A0A"/>
<path d="M80.5106 49.0147C78.4472 49.1772 76.6212 46.8011 76.4782 44.4565C76.3352 42.1119 77.9289 40.6876 79.9923 40.5251L81.1516 42.0122L82.2861 48.875L80.5106 49.0147Z" fill="#E98862"/>
<path d="M97.3557 36.8332C97.9821 36.4824 98.6799 36.3294 99.3761 36.3902C99.7195 36.4175 100.057 36.5033 100.378 36.6449C100.697 36.7835 100.999 36.9672 101.277 37.1917C101.31 37.217 101.332 37.2557 101.34 37.2997C101.348 37.3437 101.341 37.3894 101.32 37.4273C101.298 37.4651 101.265 37.4921 101.227 37.5024C101.188 37.5128 101.148 37.5057 101.114 37.4828L101.104 37.476C100.842 37.2817 100.559 37.1254 100.263 37.0109C99.9703 36.8962 99.6636 36.8323 99.3537 36.8213C98.7383 36.7948 98.1276 36.9538 97.5838 37.2823L97.5686 37.2918C97.5156 37.325 97.4532 37.333 97.3951 37.314C97.3369 37.2949 97.2878 37.2504 97.2585 37.1902C97.2293 37.13 97.2223 37.0591 97.239 36.993C97.2558 36.927 97.295 36.8712 97.348 36.8379L97.3557 36.8332Z" fill="#0C0C0C"/>
<path d="M91.8908 37.7485C91.3132 37.5059 90.6893 37.441 90.0825 37.5606C89.7766 37.6183 89.4803 37.7283 89.2035 37.8869C88.9233 38.0451 88.6618 38.2427 88.4251 38.4751L88.4165 38.4832C88.4013 38.4979 88.3836 38.509 88.3646 38.5159C88.3456 38.5228 88.3256 38.5254 88.3057 38.5236C88.2858 38.5217 88.2664 38.5154 88.2487 38.505C88.2309 38.4946 88.2152 38.4804 88.2023 38.4631C88.1894 38.4458 88.1796 38.4257 88.1735 38.4041C88.1674 38.3825 88.1651 38.3598 88.1668 38.3372C88.1684 38.3146 88.174 38.2926 88.1831 38.2724C88.1923 38.2523 88.2048 38.2343 88.22 38.2197C88.4693 37.955 88.747 37.7271 89.0464 37.5413C89.3479 37.3524 89.6725 37.2159 90.0096 37.1366C90.6925 36.9711 91.402 37.0169 92.064 37.2692C92.1212 37.2917 92.1682 37.3391 92.1947 37.401C92.2211 37.4628 92.2249 37.5341 92.2051 37.5991C92.1853 37.6641 92.1436 37.7175 92.0891 37.7476C92.0347 37.7776 91.9719 37.7819 91.9147 37.7594L91.9073 37.7563L91.8908 37.7485Z" fill="#0C0C0C"/>
<path d="M86.9463 29.4248C86.9463 29.4248 88.0315 38.236 79.9943 40.3438" stroke="#0C0C0C" stroke-width="0.5" stroke-miterlimit="10"/>
<path opacity="0.1" d="M91.7868 46.0822C91.7936 45.3473 91.0842 44.7429 90.2023 44.7323C89.3203 44.7217 88.5998 45.3088 88.5929 46.0437C88.5861 46.7785 89.2955 47.3829 90.1774 47.3935C91.0594 47.4042 91.7799 46.817 91.7868 46.0822Z" fill="#0C0C0C"/>
<path opacity="0.1" d="M99.6864 45.857C99.6816 46.5911 100.391 47.1949 101.273 47.2067C101.425 47.2087 101.577 47.1925 101.727 47.1586C101.866 46.3028 101.963 45.4741 102.029 44.7034C101.796 44.5994 101.547 44.5458 101.297 44.5454C100.413 44.5331 99.6926 45.1217 99.6864 45.857Z" fill="#0C0C0C"/>
<path d="M57.5964 139.394L55.2977 155.314H112.624L110.481 139.298L57.5964 139.394Z" fill="#262626"/>
<path d="M86.3658 73.8314C77.5663 73.3603 77.1958 64.8765 77.1958 64.8765C77.1958 64.8765 72.8368 65.1967 69.9375 65.642C65.1921 66.3717 62.062 68.1996 59.5708 71.03C57.2534 73.6629 55.8427 76.5111 57.3355 94.6979C58.4166 107.866 57.5964 139.396 57.5964 139.396L110.481 139.3C110.481 139.3 115.416 98.8671 115.86 92.9385C116.707 81.6223 114.901 72.0561 112.833 69.7067C108.582 64.8765 101.263 64.8765 97.6067 64.8771C97.5482 64.8754 98.3492 74.4732 86.3658 73.8314Z" fill="#367CFF"/>
<path d="M149.263 52.7297L132.162 88.3438L111.755 68.6906L99.2067 85.5094L128.698 113.912L128.909 114.118C130.019 115.174 131.327 115.929 132.732 116.325C134.137 116.721 135.604 116.748 137.02 116.404C138.436 116.06 139.764 115.354 140.904 114.34C142.044 113.326 142.965 112.03 143.598 110.55L164.486 61.6369L149.263 52.7297Z" fill="#367CFF"/>
<path d="M62.707 124.711L65.9264 154.733H46.522L43.2855 122.839C43.2748 121.472 43.4874 120.115 43.9125 118.836L57.9658 73.7629L76.414 80.8896L62.707 124.711Z" fill="#367CFF"/>
<path d="M65.7783 154.753L62.5544 124.688L62.5682 124.648L71.437 99.0771L71.7149 99.202L62.8599 124.733L66.0745 154.712L65.7783 154.753Z" fill="#0C0C0C"/>
<path d="M115.938 91.6009L114.868 101.266L115.124 101.302L116.194 91.6375L115.938 91.6009Z" fill="#0C0C0C"/>
<path d="M305.15 309.712H6.46241C6.40698 309.712 6.35382 309.687 6.31463 309.642C6.27544 309.598 6.25342 309.537 6.25342 309.475C6.25342 309.412 6.27544 309.351 6.31463 309.307C6.35382 309.262 6.40698 309.237 6.46241 309.237H305.15C305.205 309.237 305.258 309.262 305.297 309.307C305.337 309.351 305.359 309.412 305.359 309.475C305.359 309.537 305.337 309.598 305.297 309.642C305.258 309.687 305.205 309.712 305.15 309.712Z" fill="#292A2E"/>
<g opacity="0.65">
<path d="M305.15 309.712H6.46241C6.40698 309.712 6.35382 309.687 6.31463 309.642C6.27544 309.598 6.25342 309.537 6.25342 309.475C6.25342 309.412 6.27544 309.351 6.31463 309.307C6.35382 309.262 6.40698 309.237 6.46241 309.237H305.15C305.205 309.237 305.258 309.262 305.297 309.307C305.337 309.351 305.359 309.412 305.359 309.475C305.359 309.537 305.337 309.598 305.297 309.642C305.258 309.687 305.205 309.712 305.15 309.712Z" fill="#292A2E"/>
</g>
<path opacity="0.49" d="M103.441 147.182C111.163 147.182 117.423 140.07 117.423 131.297C117.423 122.524 111.163 115.412 103.441 115.412C95.7191 115.412 89.4593 122.524 89.4593 131.297C89.4593 140.07 95.7191 147.182 103.441 147.182Z" fill="white"/>
<path d="M103.441 143.06C109.159 143.06 113.795 137.793 113.795 131.297C113.795 124.8 109.159 119.533 103.441 119.533C97.7226 119.533 93.0869 124.8 93.0869 131.297C93.0869 137.793 97.7226 143.06 103.441 143.06Z" fill="white"/>
<path d="M110.419 135.168C110.539 135.259 110.624 135.4 110.656 135.56C110.688 135.72 110.664 135.888 110.589 136.029L109.912 137.313C109.732 137.66 109.442 137.915 109.101 138.025C107.974 138.376 105.49 138.447 101.509 133.924C97.527 129.4 97.5894 126.577 97.8984 125.298C97.9955 124.91 98.22 124.58 98.5254 124.376L99.6551 123.606C99.7792 123.522 99.9272 123.495 100.068 123.531C100.209 123.567 100.333 123.663 100.413 123.8L102.214 126.869C102.293 127.004 102.324 127.167 102.301 127.326C102.278 127.486 102.203 127.629 102.091 127.728L101.08 128.622C100.973 128.715 100.9 128.848 100.872 128.997C100.845 129.147 100.866 129.302 100.931 129.436C101.227 130.042 101.509 130.757 102.901 132.341C104.293 133.926 104.925 134.243 105.459 134.58C105.576 134.654 105.713 134.677 105.844 134.646C105.975 134.615 106.092 134.531 106.174 134.41L106.961 133.262C107.048 133.134 107.174 133.049 107.315 133.023C107.455 132.997 107.599 133.033 107.717 133.122L110.419 135.168Z" fill="#0CBC8B"/>
<path d="M262.826 167.882C247.96 167.882 235.909 172.49 235.909 178.174V190.426H289.744V178.174C289.744 172.49 277.693 167.882 262.826 167.882Z" fill="#367CFF"/>
<path opacity="0.49" d="M262.826 167.882C247.96 167.882 235.909 172.49 235.909 178.174V190.426H289.744V178.174C289.744 172.49 277.693 167.882 262.826 167.882Z" fill="white"/>
<path opacity="0.49" d="M282.411 178.175V190.425H235.909V178.175C235.909 172.965 246.03 168.66 259.16 167.98C272.291 168.66 282.411 172.965 282.411 178.175Z" fill="white"/>
<path d="M289.744 309.478L290.64 308.451L289.744 189.339L288.848 190.365L289.487 274.286L257.597 274.901L256.954 190.357L256.058 190.365L256.701 274.919L237.45 275.29L236.804 190.357L235.909 189.348L236.804 308.46L237.7 309.469L237.458 276.308L256.709 275.936L256.954 309.478L257.849 309.469L257.605 275.919L289.495 275.303L289.744 309.478Z" fill="#292A2E"/>
<path d="M207.507 291.487C207.507 291.487 205.906 300.915 198.136 301.44C190.367 301.966 192.052 308.998 192.052 308.998H221.742V292.145L207.507 291.487Z" fill="#367CFF"/>
<path d="M224.446 263.131C224.446 263.131 226.673 272.393 219.905 276.761C213.138 281.129 217.382 286.594 217.382 286.594L244.023 271.703L237.475 256.581L224.446 263.131Z" fill="#367CFF"/>
<path d="M221.627 269.253L201.553 183.201C200.03 173.694 202.323 169.574 205.855 165.571C212.061 158.538 237.776 143.569 237.776 143.569L268.626 143.474C276.807 143.474 284.848 152.638 284.848 161.932C284.848 171.225 276.532 179.107 268.352 179.107L230.363 183.415L240.66 262.208L221.627 269.253Z" fill="#262626"/>
<path d="M240.66 262.206L236.606 231.187L216.068 245.421L221.627 269.253L240.66 262.206Z" fill="#0C0C0C"/>
<path d="M245.316 160.983C245.316 160.983 232.348 164.267 219.504 178.859C211.716 187.706 212.355 203.717 213.523 234.511L226.28 213.104L240.271 184.433L245.316 160.983Z" fill="#0C0C0C"/>
<path d="M290.219 143.463L269.268 143.351L269.26 143.664H262.916C262.916 143.664 247.026 160.278 234.231 170.747C224.925 178.362 219.248 185.621 218.756 193.534C217.559 212.821 204.053 295.081 204.053 295.081L224.379 298.578L242.216 200.273C242.216 200.273 270.109 185.664 276.561 180.58C282.636 175.793 286.927 173.942 288.938 168.718C292.41 159.693 290.219 143.463 290.219 143.463Z" fill="#262626"/>
<path d="M250.641 39.2773C250.641 39.2773 247.35 35.2248 247.604 27.5069C247.801 21.5312 251.93 26.278 251.93 26.278C251.93 26.278 252.109 21.9766 254.734 22.947C257.36 23.9175 258.168 28.6406 258.168 28.6406" fill="#0C0C0C"/>
<path d="M268.58 26.3013C268.58 26.3013 281.687 30.677 273.576 50.2613L272.379 50.1079L269.95 49.7972" fill="#0C0C0C"/>
<path d="M250.005 70.5741C250.065 70.5652 250.728 83.0568 263.502 81.9689C272.345 81.2162 275.498 70.5564 275.701 70.5564C274.748 70.3261 273.569 69.9767 273.101 69.857C272.08 69.5878 271.156 68.9719 270.451 68.0914C269.746 67.2109 269.294 66.1074 269.154 64.9277C268.895 63.1567 269.333 54.0976 269.199 52.3059L255.625 55.7482C255.815 59.532 257.142 68.3045 252.49 69.857C251.714 70.1138 250.881 70.3499 250.005 70.5741Z" fill="#E98862"/>
<path opacity="0.52" d="M255.435 66.2726C255.647 65.494 255.784 64.6913 255.843 63.8788C255.992 62.0249 255.962 60.158 255.753 58.3114C258.512 57.8883 261.111 56.5945 263.256 54.5771C263.508 55.6348 264.894 60.2558 264.51 61.2595C263.786 63.161 260.376 66.2726 255.435 66.2726Z" fill="#0C0C0C"/>
<path d="M257.65 62.2949C263.006 62.8417 269.916 60.3557 271.301 52.2474L272.552 44.9311C273.937 36.8241 271.312 29.423 264.592 27.9407C257.873 26.4584 251.727 31.9233 250.341 40.0316L249.788 43.2707C249.615 44.3866 249.509 45.5145 249.471 46.6468C249.351 49.6382 249.179 54.1886 250.445 57.5515C251.641 60.7251 254.229 61.9462 257.65 62.2949Z" fill="#E98862"/>
<path d="M253.669 53.5812C255.663 53.8428 257.676 53.3421 259.392 52.1583C259.451 52.1175 259.52 52.0969 259.589 52.0987C259.659 52.1006 259.726 52.1249 259.784 52.1688C259.841 52.2127 259.887 52.2743 259.915 52.3465C259.943 52.4187 259.952 52.4985 259.942 52.5765C259.751 53.9116 259.061 56.3478 256.568 56.5248C254.959 56.6391 253.859 55.1785 253.314 54.2182C253.276 54.1516 253.255 54.074 253.255 53.9947C253.255 53.9153 253.274 53.8375 253.312 53.7705C253.349 53.7035 253.403 53.65 253.466 53.6165C253.529 53.5829 253.6 53.5707 253.669 53.5812Z" fill="white"/>
<path d="M251.949 45.3135C252.415 45.3135 252.792 44.8847 252.792 44.3556C252.792 43.8266 252.415 43.3977 251.949 43.3977C251.484 43.3977 251.106 43.8266 251.106 44.3556C251.106 44.8847 251.484 45.3135 251.949 45.3135Z" fill="#0C0C0C"/>
<path d="M260.147 46.4024C260.612 46.4024 260.99 45.9735 260.99 45.4445C260.99 44.9154 260.612 44.4866 260.147 44.4866C259.681 44.4866 259.304 44.9154 259.304 45.4445C259.304 45.9735 259.681 46.4024 260.147 46.4024Z" fill="#0C0C0C"/>
<path d="M270.462 54.6254C272.504 55.0758 274.584 52.9592 274.98 50.639C275.377 48.3189 273.94 46.6744 271.898 46.2236L270.58 47.5465L268.706 54.2387L270.462 54.6254Z" fill="#E98862"/>
<path d="M269.021 50.4702C269.021 50.4702 270.162 38.8281 267.205 37.4869C265.237 36.5937 259.755 38.8684 255.323 36.9296C253.382 36.0815 251.386 36.2539 251.021 37.2918C250.876 37.7029 250.603 31.312 254.489 27.3036C257.584 24.1124 265.947 24.7511 269.482 26.7334C279.27 32.2217 272.24 46.8173 272.24 46.8173L271.148 50.6873L269.021 50.4702Z" fill="#0C0C0C"/>
<g opacity="0.52">
<path d="M255.584 51.3968L255.571 51.3944C254.914 51.2513 253.822 50.9277 253.916 50.368C253.994 49.9043 255.955 45.1422 256.178 44.6015C256.187 44.5777 256.2 44.5561 256.217 44.5381C256.234 44.5202 256.253 44.5062 256.274 44.497C256.296 44.4878 256.319 44.4835 256.342 44.4845C256.364 44.4855 256.387 44.4917 256.408 44.5028C256.428 44.5138 256.447 44.5295 256.462 44.5488C256.477 44.5682 256.489 44.5908 256.497 44.6154C256.504 44.64 256.507 44.6661 256.505 44.692C256.504 44.7179 256.498 44.7432 256.487 44.7664C255.617 46.8749 254.304 50.1258 254.251 50.4416C254.294 50.5878 254.953 50.8656 255.635 51.0142C255.678 51.0239 255.716 51.0521 255.741 51.0929C255.766 51.1337 255.777 51.184 255.77 51.2333C255.764 51.2826 255.741 51.3272 255.706 51.3578C255.671 51.3883 255.628 51.4026 255.584 51.3975V51.3968Z" fill="#0C0C0C"/>
</g>
<path d="M255.118 39.7282C254.459 39.3695 253.727 39.2194 252.999 39.2937C252.642 39.3278 252.292 39.4226 251.959 39.5749C251.631 39.7236 251.321 39.9188 251.036 40.1559C250.98 40.1964 250.941 40.2603 250.927 40.3334C250.913 40.4066 250.925 40.483 250.961 40.546C250.997 40.609 251.053 40.6533 251.117 40.6692C251.182 40.6851 251.249 40.6713 251.304 40.6308L251.322 40.6189C251.58 40.4315 251.859 40.2816 252.15 40.1729C252.437 40.0641 252.737 40.0053 253.039 39.9985C253.634 39.98 254.224 40.1403 254.748 40.4633L254.77 40.4775C254.812 40.5051 254.859 40.523 254.908 40.53C254.957 40.537 255.006 40.5331 255.053 40.5184C255.101 40.5037 255.145 40.4786 255.184 40.4444C255.223 40.4103 255.255 40.3678 255.279 40.3194C255.304 40.271 255.32 40.2177 255.326 40.1624C255.332 40.1071 255.328 40.0509 255.315 39.9972C255.303 39.9434 255.28 39.8931 255.25 39.849C255.22 39.8049 255.183 39.768 255.14 39.7404C255.133 39.7374 255.125 39.7326 255.118 39.7282Z" fill="#0C0C0C"/>
<path d="M259.952 41.2112C260.525 41.0286 261.131 41.0213 261.709 41.1902C262.002 41.2732 262.282 41.4062 262.541 41.5847C262.804 41.7643 263.046 41.9808 263.261 42.2292L263.275 42.2441C263.321 42.2966 263.384 42.3262 263.45 42.3265C263.515 42.3268 263.578 42.2978 263.625 42.2458C263.671 42.1938 263.698 42.1229 263.699 42.0486C263.7 41.9743 263.675 41.9025 263.63 41.8489C263.398 41.5458 263.134 41.2769 262.843 41.0487C262.549 40.8164 262.226 40.6354 261.884 40.5118C261.19 40.2555 260.447 40.2167 259.735 40.3995C259.638 40.4251 259.554 40.4933 259.502 40.5889C259.45 40.6845 259.433 40.7999 259.456 40.9095C259.478 41.0191 259.538 41.114 259.623 41.1734C259.707 41.2328 259.808 41.2518 259.905 41.2261C259.912 41.2241 259.92 41.2221 259.927 41.2193L259.952 41.2112Z" fill="#0C0C0C"/>
<path d="M261.581 28.8169C262.45 26.3792 261.973 23.8591 260.516 23.1879C259.058 22.5167 257.171 23.9487 256.302 26.3863C255.432 28.8239 255.909 31.3442 257.367 32.0153C258.824 32.6865 260.711 31.2545 261.581 28.8169Z" fill="#0C0C0C"/>
<path d="M234.134 98.0784C234.537 103.449 237.389 136.955 237.777 143.569H290.197C290.497 137.603 291.85 111.515 292.992 99.8477C294.082 88.7147 295.611 83.6483 294.355 80.1885C292.14 74.0865 285.091 71.3617 280.317 70.6273C277.401 70.1789 273.017 69.8577 273.017 69.8577C273.017 69.8577 272.646 78.3897 263.794 78.8642C251.744 79.5087 252.549 69.8577 252.489 69.8577C250.537 69.8577 239.911 71.4702 237.254 73.438C233.502 76.2167 232.393 80.0039 232.349 83.4831C232.299 87.4885 233.677 91.9873 234.134 98.0784Z" fill="#367CFF"/>
<path d="M187.963 69.3529C187.877 69.1605 187.757 68.99 187.611 68.8519C187.465 68.7137 187.296 68.6108 187.113 68.5494C186.931 68.488 186.74 68.4695 186.551 68.4948C186.363 68.5202 186.18 68.5889 186.016 68.6969C185.704 68.9187 185.478 69.2667 185.383 69.6706C185.288 70.0746 185.331 70.5044 185.505 70.8733L186.361 72.7864L181.22 68.1576C180.657 67.6318 179.668 67.3961 179.19 68.1532C178.99 68.4308 178.878 68.7775 178.874 69.1365C178.869 69.4955 178.972 69.8456 179.165 70.1297C179.159 70.1347 179.153 70.1405 179.148 70.147C179.145 70.1523 179.143 70.1579 179.141 70.1636L178.271 69.3526C178.111 69.2033 177.924 69.0962 177.723 69.0391C177.522 68.982 177.312 68.9763 177.109 69.0224C176.906 69.0684 176.714 69.1652 176.548 69.3056C176.382 69.446 176.245 69.6266 176.148 69.8343C175.998 70.1691 175.955 70.5522 176.026 70.9188C176.097 71.2854 176.277 71.613 176.536 71.8461L176.906 72.1914C176.902 72.2086 176.901 72.2266 176.902 72.2443C176.608 72.0783 176.271 72.0355 175.952 72.1234C175.632 72.2113 175.35 72.4243 175.155 72.725C174.948 73.0703 174.863 73.4923 174.919 73.9056C174.975 74.3189 175.167 74.6927 175.456 74.9515L176.365 75.7995C176.345 75.7977 176.324 75.8015 176.305 75.8106C176.286 75.8197 176.27 75.8338 176.256 75.8518C176.242 75.8739 176.233 75.9006 176.231 75.9284C175.938 75.8647 175.634 75.9094 175.365 76.0559C175.096 76.2024 174.875 76.443 174.734 76.7425C174.585 77.0773 174.542 77.4604 174.613 77.827C174.684 78.1936 174.864 78.5212 175.122 78.7543L182.874 85.9868C183.958 86.9984 185.284 87.6192 186.681 87.7695C188.078 87.9198 189.482 87.5928 190.715 86.8304L194.682 84.3749L187.963 69.3529Z" fill="#E98862"/>
<g opacity="0.2">
<path d="M184.233 74.7414C184.212 74.7707 184.181 74.7893 184.147 74.7932C184.114 74.7971 184.08 74.7861 184.054 74.7624L179.17 70.3528C179.157 70.3408 179.146 70.326 179.138 70.3091C179.13 70.2923 179.124 70.2738 179.122 70.2546C179.121 70.2355 179.122 70.2161 179.127 70.1976C179.131 70.1791 179.139 70.1618 179.15 70.1467C179.16 70.1316 179.173 70.1191 179.188 70.1097C179.203 70.1004 179.219 70.0944 179.236 70.0923C179.253 70.0901 179.27 70.0917 179.286 70.097C179.303 70.1023 179.318 70.1112 179.331 70.1231L184.215 74.5328C184.228 74.5448 184.239 74.5596 184.247 74.5764C184.255 74.5932 184.261 74.6117 184.263 74.6308C184.265 74.6499 184.263 74.6693 184.259 74.6878C184.254 74.7063 184.246 74.7236 184.236 74.7387L184.233 74.7414Z" fill="#0C0C0C"/>
</g>
<g opacity="0.2">
<path d="M182.581 77.2417C182.559 77.2709 182.528 77.2895 182.495 77.2934C182.462 77.2974 182.428 77.2863 182.402 77.2627L176.951 72.3422C176.938 72.3302 176.927 72.3154 176.919 72.2986C176.91 72.2818 176.905 72.2632 176.903 72.2441C176.901 72.225 176.903 72.2056 176.907 72.1871C176.912 72.1686 176.92 72.1513 176.931 72.1363C176.952 72.107 176.983 72.0882 177.017 72.0838C177.051 72.0794 177.085 72.0896 177.112 72.1126L182.562 77.033C182.575 77.045 182.586 77.0598 182.595 77.0767C182.603 77.0935 182.608 77.112 182.61 77.1311C182.612 77.1503 182.611 77.1696 182.606 77.1881C182.601 77.2066 182.593 77.2239 182.583 77.2389L182.581 77.2417Z" fill="#0C0C0C"/>
</g>
<g opacity="0.2">
<path d="M180.806 79.9624C180.784 79.9916 180.753 80.0101 180.72 80.014C180.686 80.0179 180.653 80.0068 180.627 79.9831L176.278 76.0571C176.252 76.0329 176.234 75.9976 176.23 75.959C176.227 75.9203 176.236 75.8815 176.258 75.8511C176.279 75.8206 176.31 75.801 176.344 75.7966C176.378 75.7922 176.412 75.8033 176.439 75.8275L180.787 79.7521C180.813 79.7763 180.831 79.8117 180.835 79.8504C180.838 79.889 180.829 79.9279 180.807 79.9583L180.806 79.9624Z" fill="#0C0C0C"/>
</g>
<path d="M262.201 156.033C262.016 156.083 261.842 156.174 261.69 156.303C261.537 156.431 261.409 156.594 261.313 156.78C261.217 156.967 261.156 157.173 261.133 157.388C261.11 157.602 261.126 157.819 261.179 158.027C261.294 158.424 261.538 158.756 261.861 158.957C262.184 159.157 262.562 159.211 262.918 159.107L264.757 158.616L259.58 163.192C258.996 163.689 258.561 164.723 259.095 165.43C259.285 165.717 259.554 165.923 259.86 166.013C260.166 166.103 260.49 166.073 260.779 165.927C260.782 165.935 260.785 165.943 260.79 165.95C260.793 165.954 260.798 165.958 260.802 165.962L259.902 166.729C259.737 166.87 259.601 167.051 259.504 167.26C259.408 167.468 259.353 167.698 259.344 167.933C259.335 168.168 259.373 168.403 259.453 168.62C259.534 168.836 259.656 169.03 259.81 169.187C260.061 169.431 260.379 169.569 260.709 169.578C261.039 169.587 261.362 169.466 261.623 169.236L262.006 168.91C262.019 168.918 262.034 168.923 262.05 168.926C261.838 169.211 261.722 169.573 261.721 169.946C261.721 170.32 261.836 170.681 262.047 170.968C262.293 171.279 262.634 171.472 263 171.509C263.367 171.545 263.732 171.422 264.022 171.164L264.963 170.362C264.956 170.384 264.955 170.408 264.958 170.431C264.961 170.454 264.969 170.476 264.982 170.495C264.997 170.516 265.018 170.532 265.041 170.54C264.917 170.849 264.884 171.195 264.945 171.527C265.006 171.859 265.159 172.16 265.381 172.386C265.632 172.63 265.95 172.768 266.28 172.777C266.61 172.786 266.933 172.665 267.194 172.434L275.217 165.595C276.339 164.638 277.185 163.322 277.645 161.816C278.105 160.31 278.158 158.682 277.798 157.141L276.64 152.18L262.201 156.033Z" fill="#E98862"/>
<g opacity="0.2">
<path d="M265.923 161.428C265.944 161.459 265.952 161.498 265.948 161.536C265.943 161.574 265.925 161.608 265.899 161.632L260.969 165.975C260.956 165.987 260.94 165.996 260.924 166.001C260.908 166.006 260.891 166.007 260.874 166.005C260.857 166.003 260.841 165.996 260.826 165.987C260.811 165.977 260.798 165.965 260.788 165.949C260.778 165.934 260.77 165.917 260.766 165.898C260.761 165.88 260.76 165.86 260.762 165.841C260.764 165.822 260.769 165.804 260.778 165.787C260.786 165.77 260.797 165.755 260.811 165.744L265.74 161.401C265.768 161.377 265.802 161.366 265.836 161.371C265.87 161.376 265.901 161.396 265.922 161.427L265.923 161.428Z" fill="#0C0C0C"/>
</g>
<g opacity="0.2">
<path d="M267.67 163.845C267.69 163.876 267.699 163.914 267.694 163.953C267.69 163.991 267.672 164.025 267.645 164.049L262.145 168.897C262.118 168.921 262.084 168.932 262.05 168.927C262.016 168.922 261.985 168.902 261.964 168.871C261.944 168.84 261.936 168.801 261.94 168.763C261.944 168.725 261.961 168.69 261.987 168.665L267.487 163.818C267.514 163.794 267.548 163.783 267.582 163.788C267.616 163.793 267.647 163.813 267.668 163.843L267.67 163.845Z" fill="#0C0C0C"/>
</g>
<g opacity="0.2">
<path d="M269.574 166.45C269.595 166.481 269.603 166.519 269.599 166.557C269.594 166.595 269.577 166.63 269.55 166.653L265.161 170.52C265.134 170.542 265.1 170.551 265.067 170.546C265.034 170.54 265.004 170.521 264.984 170.491C264.963 170.461 264.954 170.423 264.957 170.385C264.961 170.347 264.977 170.313 265.003 170.288L269.392 166.421C269.419 166.397 269.453 166.386 269.487 166.391C269.521 166.396 269.552 166.416 269.573 166.447L269.574 166.45Z" fill="#0C0C0C"/>
</g>
<path d="M311.725 121.258L311.626 121.026L294.19 80.0742L276.72 89.6754L291.159 123.588L266.241 151.991L278.27 166.271L309.599 133.791C311.093 132.239 312.106 130.182 312.489 127.924C312.872 125.666 312.604 123.329 311.725 121.258Z" fill="#367CFF"/>
<path d="M273.629 143.739C273.599 143.739 273.57 143.729 273.546 143.71C273.521 143.691 273.502 143.665 273.491 143.634C273.48 143.602 273.477 143.568 273.483 143.535C273.488 143.503 273.503 143.472 273.524 143.449L291.274 123.554L278.077 93.484C278.067 93.4639 278.061 93.4418 278.059 93.4189C278.057 93.396 278.058 93.3729 278.064 93.3509C278.07 93.3289 278.08 93.3085 278.093 93.2909C278.106 93.2733 278.122 93.259 278.141 93.2487C278.159 93.2385 278.179 93.2325 278.199 93.2312C278.219 93.2299 278.239 93.2333 278.258 93.2412C278.277 93.2491 278.295 93.2613 278.309 93.2771C278.324 93.2929 278.336 93.3119 278.344 93.333L291.59 123.512C291.604 123.544 291.609 123.58 291.603 123.615C291.598 123.65 291.583 123.683 291.56 123.708L273.732 143.689C273.705 143.72 273.668 143.738 273.629 143.739Z" fill="#0C0C0C"/>
<path d="M235.941 74.4666L211.551 100.036L193.599 74.5425L181.626 88.2223L201.675 119.787C203.479 123.881 207.362 126.36 211.351 125.71C212.896 125.458 214.362 124.774 215.616 123.719L216.069 123.339L248.789 92.2303L235.941 74.4666Z" fill="#367CFF"/>
<path d="M234.839 105.503C234.803 105.503 234.767 105.488 234.74 105.461C234.712 105.434 234.695 105.396 234.69 105.355L233.555 95.6881C233.551 95.6439 233.561 95.5994 233.586 95.5642C233.61 95.529 233.645 95.506 233.684 95.5C233.722 95.4941 233.762 95.5058 233.793 95.5325C233.824 95.5593 233.845 95.599 233.851 95.643L234.986 105.31C234.988 105.332 234.987 105.355 234.982 105.377C234.977 105.398 234.968 105.418 234.956 105.436C234.944 105.454 234.93 105.469 234.913 105.48C234.896 105.491 234.877 105.498 234.857 105.501C234.851 105.502 234.845 105.503 234.839 105.503Z" fill="#0C0C0C"/>
<path d="M214.562 105.18C214.536 105.18 214.509 105.172 214.486 105.156C214.463 105.141 214.444 105.119 214.431 105.092L211.42 100.118C211.401 100.078 211.397 100.032 211.408 99.9887C211.419 99.9455 211.444 99.909 211.479 99.8873C211.514 99.8656 211.554 99.8604 211.593 99.8729C211.631 99.8854 211.663 99.9145 211.682 99.9539L214.693 104.928C214.705 104.954 214.711 104.983 214.711 105.013C214.711 105.042 214.703 105.071 214.69 105.096C214.677 105.122 214.658 105.143 214.636 105.157C214.613 105.172 214.588 105.18 214.562 105.18Z" fill="#0C0C0C"/>
</svg>
