<svg width="50" height="51" viewBox="0 0 50 51" fill="none" xmlns="http://www.w3.org/2000/svg">
<g clip-path="url(#clip0_0_26)">
<path d="M0 26.1987L23.8476 50.0446V40.9185L9.56756 26.1987H0Z" fill="white"/>
<path d="M26.1523 49.9709L50 26.125H40.8721L26.1523 40.4034V49.9709Z" fill="white"/>
<path d="M23.6605 0L0.0808105 24.1104L9.20529 24.0091L23.767 9.56756L23.6605 0Z" fill="white"/>
<path d="M49.818 23.9935L26.0013 0.116699L25.9893 9.24289L40.2504 23.9815L49.818 23.9935Z" fill="white"/>
<path d="M2.74609 2.28247C5.5025 4.17331 8.25719 6.06416 11.0136 7.955C18.0085 18.4929 25.0051 29.0308 32.0001 39.5704C25.7677 35.4641 19.5353 31.3578 13.3029 27.2516C9.78395 18.9291 6.26502 10.6066 2.74609 2.28247Z" fill="#3953A4"/>
<path d="M11.5752 8.04932C18.68 15.5354 25.7849 23.0215 32.8897 30.5076L31.3629 20.7099C34.4474 16.808 37.5335 12.9061 40.6179 9.00419C36.7177 12.0508 32.8193 15.0992 28.9191 18.1458C23.1367 14.7798 17.3559 11.4137 11.5735 8.04761L11.5752 8.04932Z" fill="#CCEBF5"/>
<path d="M40.8635 9.42163C38.0367 19.3018 35.2116 29.1819 32.3847 39.0637C29.2677 33.0735 26.1489 27.085 23.0319 21.0947C26.5903 24.8369 30.1504 28.5808 33.7089 32.323C33.094 28.4675 32.4809 24.6102 31.8661 20.7547C34.8647 16.9781 37.8649 13.1999 40.8635 9.42335V9.42163Z" fill="url(#paint0_radial_0_26)"/>
<path d="M11.1802 8.24341C18.1201 18.5889 25.0601 28.9345 32.0001 39.2783C28.8315 32.9789 25.6629 26.6796 22.4926 20.3802C18.7212 16.334 14.9516 12.2879 11.1802 8.24341Z" fill="url(#paint1_linear_0_26)"/>
<path d="M21.251 33.2073L30.7001 39.5668L19.3 44.9181L21.251 33.2073Z" fill="url(#paint2_linear_0_26)"/>
</g>
<defs>
<radialGradient id="paint0_radial_0_26" cx="0" cy="0" r="1" gradientUnits="userSpaceOnUse" gradientTransform="translate(32.0971 25.9005) rotate(6.3) scale(8.13011 12.0326)">
<stop offset="0.2" stop-color="#89D3E2"/>
<stop offset="0.48" stop-color="#679CC7"/>
<stop offset="0.78" stop-color="#4567AE"/>
<stop offset="0.93" stop-color="#3953A4"/>
</radialGradient>
<linearGradient id="paint1_linear_0_26" x1="21.9774" y1="23.5161" x2="25.9463" y2="20.995" gradientUnits="userSpaceOnUse">
<stop offset="0.1" stop-color="#D0EDF6"/>
<stop offset="0.51" stop-color="#97A6AB"/>
<stop offset="0.83" stop-color="#6F7475"/>
<stop offset="0.99" stop-color="#606161"/>
</linearGradient>
<linearGradient id="paint2_linear_0_26" x1="24.49" y1="38.5003" x2="26.1078" y2="36.2007" gradientUnits="userSpaceOnUse">
<stop offset="0.3" stop-color="#21265B"/>
<stop offset="0.76" stop-color="#161726"/>
<stop offset="0.99" stop-color="#121212"/>
</linearGradient>
<clipPath id="clip0_0_26">
<rect width="50" height="50.0447" fill="white"/>
</clipPath>
</defs>
</svg>
