<svg width="25" height="25" viewBox="0 0 25 25" fill="none" xmlns="http://www.w3.org/2000/svg">
<path d="M21.875 13.5416H3.12501C2.84874 13.5416 2.58379 13.4318 2.38844 13.2365C2.19309 13.0411 2.08334 12.7762 2.08334 12.4999C2.08334 12.2237 2.19309 11.9587 2.38844 11.7633C2.58379 11.568 2.84874 11.4583 3.12501 11.4583H21.875C22.1513 11.4583 22.4162 11.568 22.6116 11.7633C22.8069 11.9587 22.9167 12.2237 22.9167 12.4999C22.9167 12.7762 22.8069 13.0411 22.6116 13.2365C22.4162 13.4318 22.1513 13.5416 21.875 13.5416Z" fill="white" stroke="white" stroke-width="2"/>
<path d="M21.875 19.7916H3.12501C2.84874 19.7916 2.58379 19.6818 2.38844 19.4865C2.19309 19.2911 2.08334 19.0262 2.08334 18.7499C2.08334 18.4737 2.19309 18.2087 2.38844 18.0133C2.58379 17.818 2.84874 17.7083 3.12501 17.7083H21.875C22.1513 17.7083 22.4162 17.818 22.6116 18.0133C22.8069 18.2087 22.9167 18.4737 22.9167 18.7499C22.9167 19.0262 22.8069 19.2911 22.6116 19.4865C22.4162 19.6818 22.1513 19.7916 21.875 19.7916ZM21.875 7.29159H3.12501C2.84874 7.29159 2.58379 7.18184 2.38844 6.98649C2.19309 6.79114 2.08334 6.52619 2.08334 6.24992C2.08334 5.97365 2.19309 5.7087 2.38844 5.51335C2.58379 5.318 2.84874 5.20825 3.12501 5.20825H21.875C22.1513 5.20825 22.4162 5.318 22.6116 5.51335C22.8069 5.7087 22.9167 5.97365 22.9167 6.24992C22.9167 6.52619 22.8069 6.79114 22.6116 6.98649C22.4162 7.18184 22.1513 7.29159 21.875 7.29159Z" fill="white" stroke="white" stroke-width="2"/>
</svg>
